<?xml version="1.0" encoding="utf-8"?>
<!-- Generator: Adobe Illustrator 15.1.0, SVG Export Plug-In . SVG Version: 6.00 Build 0)  -->
<!DOCTYPE svg PUBLIC "-//W3C//DTD SVG 1.1//EN" "http://www.w3.org/Graphics/SVG/1.1/DTD/svg11.dtd">
<svg version="1.1" id="UPJV" xmlns="http://www.w3.org/2000/svg" xmlns:xlink="http://www.w3.org/1999/xlink" x="0px" y="0px"
	 width="393px" height="149px" viewBox="0 0 393 149" enable-background="new 0 0 393 149" xml:space="preserve">
<g>
	<path fill="#FFFFFF" d="M22.436,85.268v-63.15h19.28v63.15c0,16.588,8.487,24.882,25.464,24.882
		c16.976,0,25.464-8.294,25.464-24.882v-63.15h19.28v63.15c0,27.744-14.915,41.615-44.744,41.615S22.436,113.012,22.436,85.268z"/>
	<path fill="#FFFFFF" d="M133.75,126.155V22.117h46.563c21.244,0,31.866,9.774,31.866,29.32c0,21.196-14.527,34.025-43.579,38.487
		l-2.765-17.17c17.461-3.152,26.191-10.064,26.191-20.735c0-8.633-4.317-12.95-12.95-12.95h-26.046v87.086H133.75z"/>
	<path fill="#FFFFFF" d="M249.646,22.117v74.063c0,19.983-13.703,29.975-41.105,29.975v-16.733c14.551,0,21.826-4.413,21.826-13.241
		V22.117H249.646z"/>
	<path fill="#FFFFFF" d="M370.564,22.117l-45.617,104.038h-20.734L260.561,22.117h22.916l32.23,79.665l32.158-79.665H370.564z"/>
</g>
</svg>
